<?xml version="1.0" encoding="utf-8"?>
<!-- Generator: Adobe Illustrator 25.0.1, SVG Export Plug-In . SVG Version: 6.00 Build 0)  -->
<svg version="1.1" id="Layer_1" xmlns="http://www.w3.org/2000/svg" xmlns:xlink="http://www.w3.org/1999/xlink" x="0px" y="0px"
	 viewBox="0 0 200 94" style="enable-background:new 0 0 200 94;" xml:space="preserve">
<style type="text/css">
	.st0{fill:#FFFFFF;}
</style>
<g id="Layer_2_1_">
</g>
<g id="Layer_1_1_">
	<g>
		<path class="st0" d="M153.7,72.9c-5.5,0-11,0-16.5,0c-0.4,0-0.7,0-1.1-0.1c-0.9-0.3-1.2-1.1-0.9-1.9c0.2-0.6,0.4-1.1,0.6-1.7
			c0.4-1.1,0.8-2.2,1.2-3.3c0.6-1.6,1.1-3.1,1.7-4.7c0.4-1.1,0.8-2.2,1.2-3.3c0.6-1.7,1.2-3.4,1.9-5.1c0.4-1.2,0.9-2.4,1.3-3.7
			c0.8-2.1,1.5-4.2,2.3-6.3c0.2-0.5,0.4-1.1,0.5-1.6c0.1-0.2,0.1-0.5,0.1-0.7c0-2.4,0-4.8,0-7.2c0-0.1,0-0.2,0-0.2
			c0-0.3-0.2-0.5-0.5-0.5c-1.1,0-2.2,0-3.4,0c-0.3,0-0.5,0-0.8-0.1c-0.8-0.2-1.2-0.8-1.1-1.6c0.1-0.9,0.8-1.4,1.5-1.4
			c0.1,0,0.2,0,0.3,0c1.8,0,3.6,0,5.4,0c0.3,0,0.6,0,0.8,0.2c0.4,0.1,0.6,0.4,0.7,0.8c0.1,0.3,0.1,0.6,0.1,0.9c0,3.2,0,6.5,0,9.7
			c0,0.5-0.1,1-0.3,1.5c-0.4,1-0.7,1.9-1.1,2.9c-0.8,2.1-1.5,4.2-2.3,6.3c-0.4,1.1-0.8,2.3-1.2,3.4c-0.6,1.5-1.1,3.1-1.7,4.6
			c-0.4,1.1-0.8,2.2-1.2,3.3c-0.6,1.6-1.1,3.1-1.7,4.7c-0.2,0.5-0.4,1.1-0.6,1.6c-0.1,0.2,0,0.3,0.2,0.4c0.1,0,0.3,0,0.4,0
			c9.4,0,18.8,0,28.2,0c0.2,0,0.3,0,0.5,0c0.1,0,0.2-0.1,0.2-0.3c-0.2-0.5-0.3-1-0.5-1.4c-0.2-0.6-0.5-1.2-0.7-1.8
			c-0.8-2.3-1.6-4.5-2.5-6.8c-0.4-1.1-0.8-2.3-1.2-3.4c-0.6-1.6-1.2-3.3-1.8-4.9c-0.4-1.1-0.8-2.3-1.2-3.4c-0.6-1.7-1.2-3.3-1.8-4.9
			c-0.2-0.7-0.4-1.4-0.4-2.1c0-2.9,0-5.9,0-8.8c0-0.4,0-0.7,0.1-1.1c0.2-0.6,0.6-0.9,1.2-1c0.1,0,0.2,0,0.3,0c1.3,0,2.7,0,4,0
			c0.3,0,0.6,0.1,0.9,0.2c0.5,0.3,0.7,0.9,0.6,1.4c-0.1,0.8-0.8,1.3-1.6,1.3c-0.6,0-1.3,0-1.9,0c-0.7,0-0.7,0-0.7,0.7
			c0,2.4,0,4.7,0,7.1c0,0.5,0.1,1.1,0.3,1.6c0.6,1.3,1,2.7,1.5,4.1c0.6,1.6,1.2,3.3,1.8,4.9c0.4,1,0.7,2,1.1,3
			c0.6,1.7,1.2,3.3,1.8,5c0.4,1.1,0.8,2.1,1.1,3.2c0.6,1.7,1.3,3.5,1.9,5.2c0.3,0.9,0.7,1.9,1,2.8c0,0.1,0,0.2,0.1,0.3
			c0.3,0.3,0.2,0.7,0.2,1c0,0.4-0.3,0.7-0.6,0.9c-0.3,0.2-0.7,0.4-1.1,0.4c-0.3,0-0.5,0-0.8,0C164.5,72.9,159.1,72.9,153.7,72.9
			L153.7,72.9L153.7,72.9z"/>
		<path class="st0" d="M120.2,52.3c0.1,0.2,0.1,0.4,0.1,0.6c0.1,0.4,0.2,0.8,0.4,1.2c0.6,1.4,1.7,2.2,3.2,2.6
			c1.2,0.2,2.3,0.2,3.5-0.1c0.9-0.2,1.7-0.7,2.2-1.5c0.4-0.6,0.6-1.3,0.4-2c-0.1-0.6-0.4-1-0.9-1.3c-0.5-0.3-1-0.6-1.5-0.7
			c-0.9-0.2-1.7-0.5-2.6-0.7c-1.1-0.3-2.2-0.5-3.3-0.9c-0.9-0.3-1.7-0.6-2.5-1.2c-1.3-0.9-2.3-2-2.7-3.6c-0.8-2.9,0.5-5.7,2.8-7.1
			c1.1-0.6,2.3-1,3.5-1.2c1.5-0.2,3-0.2,4.4,0c1,0.1,2,0.4,2.9,0.8c2.1,1,3.3,2.7,3.8,4.9c0,0.1,0,0.2,0.1,0.3
			c0.1,1.3,0.3,1-0.9,1.1c-1.1,0.1-2.2,0.1-3.3,0.1c-0.1,0-0.2,0-0.3,0c-0.1,0-0.2,0-0.3-0.2c0-0.1,0-0.2-0.1-0.3
			c0-0.1-0.1-0.3-0.1-0.4c-0.4-1.5-1.4-2.3-2.9-2.5c-1-0.1-2.1-0.1-3.1,0.1c-0.5,0.1-0.9,0.3-1.4,0.6c-1,0.7-1,2.1-0.1,2.9
			c0.3,0.2,0.6,0.4,0.9,0.6c0.8,0.3,1.6,0.6,2.4,0.8c1.2,0.3,2.4,0.6,3.5,0.9c0.8,0.2,1.5,0.5,2.2,0.8c0.6,0.3,1.1,0.6,1.6,0.9
			c1.5,1.2,2.3,2.7,2.5,4.6c0.1,0.9,0.1,1.7-0.2,2.6c-0.6,2.3-2,3.9-4.2,4.8c-1,0.4-2,0.6-3,0.7c-1,0.1-2,0.1-3,0.1
			c-1.1,0-2.3-0.2-3.4-0.6c-2.3-0.7-3.9-2.2-4.8-4.5c-0.4-0.9-0.6-1.9-0.7-2.8c0-0.2,0-0.3,0.2-0.3c0.5-0.1,1-0.1,1.5-0.2
			c0.8-0.1,1.5-0.2,2.3-0.2C119.8,52.3,120,52.3,120.2,52.3z"/>
		<path class="st0" d="M107.3,43.7c-0.1-0.2-0.1-0.3-0.1-0.4c-0.1-0.2-0.1-0.4-0.1-0.6c-0.4-1.3-1.3-2.1-2.6-2.3
			c-1.1-0.2-2.3-0.2-3.4,0.1c-0.5,0.1-0.9,0.3-1.4,0.6c-1,0.7-1,2.1-0.1,2.9c0.3,0.2,0.6,0.4,0.9,0.6c0.8,0.3,1.6,0.6,2.4,0.8
			c1.2,0.3,2.4,0.6,3.5,0.9c0.9,0.3,1.8,0.6,2.7,1c0.8,0.4,1.5,0.9,2,1.6c0.9,1.1,1.4,2.3,1.5,3.7c0.1,0.9,0.1,1.8-0.2,2.6
			c-0.6,2.2-1.9,3.8-4.1,4.8c-0.9,0.4-1.9,0.6-3,0.8c-1.1,0.1-2.1,0.2-3.2,0.1c-1.1,0-2.3-0.2-3.4-0.6c-2.3-0.8-3.9-2.2-4.8-4.5
			c-0.4-0.9-0.6-1.8-0.7-2.8c0-0.3,0-0.3,0.3-0.3c0.4,0,0.8-0.1,1.2-0.1c0.9-0.1,1.8-0.2,2.8-0.3c0.1,0,0.2,0,0.3,0
			c0.1,0,0.1,0,0.2,0.1c0,0.2,0.1,0.3,0.1,0.5c0.1,0.4,0.2,0.9,0.4,1.3c0.6,1.4,1.7,2.2,3.2,2.5c1.2,0.2,2.3,0.2,3.4-0.1
			c0.7-0.2,1.4-0.6,1.9-1.1c0.4-0.4,0.7-0.9,0.7-1.5c0.1-0.9-0.2-1.6-0.9-2.2c-0.5-0.3-1-0.6-1.5-0.7c-0.9-0.2-1.7-0.5-2.6-0.7
			c-1.1-0.3-2.2-0.5-3.3-0.9c-0.8-0.3-1.7-0.6-2.4-1.1c-1.4-0.9-2.4-2.2-2.8-3.8c-0.7-2.7,0.5-5.3,2.5-6.7c0.9-0.6,1.9-1,3-1.3
			c2.2-0.4,4.3-0.4,6.5,0.1c1.1,0.3,2.1,0.7,3,1.4c1.3,1.1,2.1,2.4,2.5,4.1c0.1,0.4,0.1,0.8,0.1,1.2c0,0.1-0.1,0.2-0.2,0.2
			c-0.2,0-0.4,0-0.6,0c-1.2,0-2.4,0.1-3.6,0.1C107.5,43.7,107.4,43.7,107.3,43.7z"/>
		<path class="st0" d="M72.5,48.5c0-3.7,0-7.5,0-11.2c0-0.7-0.1-0.7,0.6-0.7c5.4,0,10.9,0,16.3,0c0.7,0,0.6-0.1,0.6,0.7
			c0,0.9,0,1.9,0,2.8c0,0.1,0,0.3,0,0.4c0,0.1-0.1,0.2-0.2,0.2c-0.2,0-0.3,0-0.5,0c-3.8,0-7.6,0-11.4,0c-0.8,0-0.7-0.1-0.7,0.7
			c0,1.3,0,2.6,0,3.9c0,0.1,0,0.3,0,0.4c0,0.2,0.1,0.2,0.2,0.3c0.2,0,0.3,0,0.5,0c3.5,0,7,0,10.5,0c0.7,0,0.7-0.1,0.7,0.7
			c0,0.9,0,1.8,0,2.7c0,0.2,0,0.3,0,0.5c0,0.1-0.1,0.2-0.2,0.2c-0.2,0-0.3,0-0.5,0c-3.5,0-7,0-10.5,0c-0.2,0-0.3,0-0.5,0
			c-0.1,0-0.2,0.1-0.2,0.2c0,0.1,0,0.2,0,0.3c0,1.8,0,3.5,0,5.3c0,0.1,0,0.3,0,0.4c0,0.1,0.1,0.2,0.2,0.2c0.2,0,0.3,0,0.5,0
			c3.9,0,7.9,0,11.8,0c0.9,0,0.7-0.1,0.8,0.7c0,0.9,0,1.8,0,2.7c0,0.1,0,0.3,0,0.4c0,0.1-0.1,0.1-0.2,0.1c-0.1,0-0.3,0-0.4,0
			c-5.7,0-11.3,0-17,0c-0.1,0-0.2,0-0.3,0c-0.1,0-0.2-0.1-0.2-0.2c0-0.2,0-0.3,0-0.5C72.5,56,72.5,52.3,72.5,48.5z"/>
		<path class="st0" d="M52.3,48.6c0-3.7,0-7.4,0-11.1c0-0.7-0.1-0.6,0.6-0.6c1.2,0,2.4,0,3.6,0c0.1,0,0.3,0,0.4,0
			c0.1,0,0.2,0.1,0.2,0.2c0,0.2,0,0.4,0,0.6c0,6,0,12,0,18c0,0.9-0.1,0.8,0.8,0.8c3.5,0,7,0,10.5,0c0.8,0,0.7-0.1,0.7,0.7
			c0,0.9,0,1.8,0,2.7c0,0.1,0,0.3,0,0.4c0,0.1-0.1,0.1-0.2,0.1c-0.1,0-0.2,0-0.3,0c-5.2,0-10.5,0-15.7,0c-0.1,0-0.2,0-0.3,0
			c-0.1,0-0.2-0.1-0.2-0.2c0-0.2,0-0.3,0-0.5C52.3,56,52.3,52.3,52.3,48.6z"/>
		<path class="st0" d="M79.3,31.3c-2.7,0-4.7-2.1-5-4.3c-0.2-2,0.5-3.6,2.1-4.8c2.2-1.6,5-1.1,6.7,1c2.2,2.8,0.9,7-2.6,8
			c-0.2,0.1-0.5,0.1-0.7,0.1C79.6,31.3,79.4,31.3,79.3,31.3z"/>
		<path class="st0" d="M83.8,13.7c0-1.8,1.2-4,3.6-4.5c2.7-0.6,5.3,1.1,5.6,3.9c0.4,2.5-1.2,4.6-3.1,5.2c-2.4,0.8-5.2-0.4-6-3.3
			c0-0.2-0.1-0.4-0.1-0.6C83.8,14.2,83.8,13.9,83.8,13.7z"/>
		<path class="st0" d="M107.5,6.1c0,2.7-2,4.7-4.6,4.7c-2.4-0.1-4-1.9-4.3-3.7c-0.3-1.8,0.5-4,2.5-4.9c2.9-1.3,6.1,0.6,6.3,3.6
			C107.5,5.9,107.5,6,107.5,6.1z"/>
		<path class="st0" d="M142.4,74.9c2,0,3.8,1.6,4.1,3.6c0.3,2.2-1.2,4.3-3.3,4.7c-1.7,0.3-3.2-0.4-4.1-1.7c-1.8-2.6-0.3-5.9,2.6-6.5
			C141.8,74.9,142.1,74.9,142.4,74.9z"/>
		<path class="st0" d="M136.5,85.8c0,1.9-1.3,4-3.9,4.2c-1.5,0.1-2.7-0.5-3.6-1.7c-1.3-1.8-1-4.3,0.7-5.7c2.3-1.9,5.8-0.8,6.6,2.1
			c0,0.2,0.1,0.3,0.1,0.5C136.5,85.3,136.5,85.6,136.5,85.8z"/>
		<path class="st0" d="M117.3,0.5c1.5,0,2.4,0.5,3.2,1.2c0.9,0.8,1.3,1.9,1.3,3.1c-0.1,2.7-2.2,4.2-4.2,4.2c-2,0-4.1-1.6-4.1-4.2
			c0-0.7,0.2-1.5,0.6-2.1c0.4-0.6,0.9-1.2,1.5-1.5C116.2,0.7,116.9,0.5,117.3,0.5z"/>
		<path class="st0" d="M120.9,93.5c-2.2,0-4.1-2-4.1-4.2c0.1-2.6,1.9-4.2,4.2-4.2c2.2,0,4,1.9,4,4.1
			C125.1,91.8,123.1,93.5,120.9,93.5z"/>
		<path class="st0" d="M132,4.7c1.8,0,3.6,1.4,3.6,3.7c0,2.2-1.8,3.6-3.7,3.6c-1.9,0-3.6-1.5-3.5-3.7C128.4,6.1,130.3,4.7,132,4.7z"
			/>
		<path class="st0" d="M109.3,93.1c-2,0-3.5-1.6-3.6-3.4c-0.1-1.1,0.2-2,0.9-2.8c1.4-1.6,3.9-1.6,5.3,0c1.9,2.1,0.8,5.4-1.8,6.1
			C109.9,93.1,109.6,93.1,109.3,93.1z"/>
		<path class="st0" d="M156.2,64c0,2-1.7,3.5-3.5,3.5c-1.6,0-3.5-1.2-3.5-3.6c0-2,1.6-3.5,3.5-3.5C154.9,60.4,156.3,62.3,156.2,64z"
			/>
		<path class="st0" d="M154.9,50.2c1.3-0.1,2.9,1,2.9,2.9c0,1.9-1.6,2.9-2.9,2.9c-1.3,0-2.9-1-2.9-3C152,51.1,153.6,50.1,154.9,50.2
			z"/>
		<path class="st0" d="M140.6,10.8c1.5,0,2.8,1.3,2.8,2.9c0,1.5-1.2,2.8-2.9,2.8c-1.5,0-2.8-1.3-2.8-2.8
			C137.8,12,139.1,10.7,140.6,10.8z"/>
		<path class="st0" d="M99.8,84.1c1.5,0,2.8,1.3,2.8,2.9c0,1.4-1.1,2.8-2.8,2.8c-1.7,0-2.8-1.4-2.8-2.9C97,85.4,98.3,84.1,99.8,84.1
			z"/>
		<path class="st0" d="M95.4,84c0,1-0.8,2.1-2.1,2.1c-1.2,0-2.1-0.9-2.1-2.2c0-1.3,1-2.1,2.1-2.1C94.5,81.8,95.4,82.8,95.4,84z"/>
		<path class="st0" d="M146.9,21.6c-1.2,0-2.1-1-2.1-2.2c0-1.4,1.2-2.2,2.1-2.1c1.2,0,2.1,1,2.1,2.2C149,20.8,148,21.6,146.9,21.6z"
			/>
		<path class="st0" d="M153.6,43.2c0-0.5,0.1-1,0.4-1.3c0.5-0.6,1.1-0.8,1.8-0.6c0.8,0.2,1.3,0.6,1.5,1.4c0.2,0.7,0,1.3-0.5,1.9
			c-0.3,0.4-0.8,0.6-1.3,0.6C154.5,45.1,153.6,44.3,153.6,43.2z"/>
		<path class="st0" d="M104.6,67.5c0,0.1,0.1,0.1,0.1,0.2c0.1,0.6,0.5,0.8,1,1c0.5,0.1,0.9,0.1,1.4-0.1c0.2-0.1,0.4-0.2,0.5-0.4
			c0.2-0.3,0.1-0.7-0.2-1c-0.2-0.1-0.3-0.2-0.5-0.2c-0.4-0.1-0.8-0.2-1.2-0.3c-0.3-0.1-0.6-0.2-0.8-0.3c-1-0.5-0.8-1.9-0.1-2.4
			c0.2-0.1,0.4-0.2,0.6-0.3c0.6-0.2,1.2-0.1,1.8,0.1c0.6,0.2,1,0.7,1.1,1.3c0,0.1,0,0.2-0.2,0.2c-0.1,0-0.2,0-0.3,0
			c-0.1,0-0.2,0-0.3-0.2c0-0.1-0.1-0.1-0.1-0.2c-0.1-0.3-0.4-0.5-0.7-0.6c-0.4-0.1-0.7-0.1-1.1,0c-0.2,0-0.4,0.2-0.6,0.4
			c-0.3,0.3-0.2,0.8,0.2,1c0.2,0.1,0.5,0.2,0.7,0.2c0.3,0.1,0.6,0.2,1,0.2c0.3,0.1,0.5,0.2,0.8,0.3c1.1,0.6,1,1.9,0.2,2.5
			c-0.3,0.3-0.7,0.4-1.2,0.5c-0.5,0.1-0.9,0-1.4-0.1c-0.8-0.2-1.3-0.9-1.4-1.6c0-0.1,0-0.2,0.1-0.2
			C104.2,67.5,104.4,67.5,104.6,67.5z"/>
		<path class="st0" d="M163.6,63c0.9,0,1.7,0.7,1.7,1.8c0,0.9-0.8,1.7-1.7,1.7c-0.9,0-1.7-0.9-1.7-1.8
			C161.9,63.7,162.7,62.9,163.6,63z"/>
		<path class="st0" d="M145.1,66.5c0,0.9-0.8,1.8-1.7,1.8c-0.9,0-1.7-1-1.7-1.8c0-0.9,0.8-1.7,1.7-1.7
			C144.3,64.7,145.1,65.5,145.1,66.5z"/>
		<path class="st0" d="M160.1,61.2c-0.9,0-1.7-0.8-1.7-1.8c0-0.9,0.8-1.7,1.8-1.7c1,0,1.7,1,1.7,1.7
			C161.8,60.5,161.1,61.2,160.1,61.2z"/>
		<path class="st0" d="M152,24.7c0,0.9-0.7,1.7-1.6,1.7c-0.9,0-1.6-0.7-1.6-1.6c0-0.9,0.7-1.7,1.6-1.7C151.2,23.1,152,23.8,152,24.7
			z"/>
		<path class="st0" d="M86.9,80.7c0-0.9,0.7-1.6,1.6-1.6c0.9,0,1.6,0.7,1.6,1.6c0,0.9-0.7,1.6-1.6,1.6
			C87.7,82.3,86.9,81.6,86.9,80.7z"/>
		<path class="st0" d="M47.8,66.8c-0.5,0-1,0-1.5,0c-0.3,0-0.6,0-0.9,0c-0.1,0-0.2,0.1-0.2,0.2c0,0.2,0,0.3,0,0.5c0,0.5,0,1.1,0,1.6
			c0,0.1-0.1,0.2-0.2,0.2c-0.1,0-0.3,0-0.4,0c0,0-0.1-0.1-0.1-0.1c0-0.1,0-0.2,0-0.2c0-1.6,0-3.3,0-4.9c0-0.1,0-0.1,0-0.2
			c0-0.1,0.1-0.1,0.1-0.2c0,0,0.1,0,0.1,0c1.1,0,2.2,0,3.2,0c0.3,0,0.3,0,0.3,0.3c0,0.3,0,0.3-0.4,0.3c-0.1,0-0.2,0-0.3,0
			c-0.6,0-1.1,0-1.7,0c-0.1,0-0.2,0-0.3,0c-0.3,0-0.3,0-0.3,0.3c0,0.4,0,0.8,0,1.2c0,0.2,0,0.3,0.3,0.3c0.5,0,0.9,0,1.4,0
			c0.1,0,0.3,0,0.4,0C47.8,66.1,47.8,66.1,47.8,66.8z"/>
		<path class="st0" d="M131.6,69.4c-0.2,0-0.5,0-0.8-0.1c-0.5-0.2-0.8-0.5-0.9-1.1c0-0.1,0-0.2,0.2-0.2c0.1,0,0.2,0,0.3,0
			c0.1,0,0.2,0,0.3,0.2c0.3,0.6,0.9,0.8,1.5,0.5c0.1,0,0.1-0.1,0.1-0.1c0.4-0.3,0.3-0.7-0.1-0.9c-0.2-0.1-0.4-0.1-0.7-0.2
			c-0.3-0.1-0.6-0.2-0.9-0.3c-0.4-0.2-0.6-0.5-0.6-0.9c0-0.4,0.2-0.8,0.6-1c0.7-0.3,1.3-0.3,2,0c0.3,0.2,0.4,0.4,0.5,0.7
			c0,0.1,0,0.1-0.1,0.1c-0.1,0-0.3,0.1-0.5,0.1c-0.1,0-0.1-0.1-0.2-0.1c-0.1-0.3-0.3-0.4-0.5-0.5c-0.3-0.1-0.6-0.1-0.9,0.1
			c-0.2,0.1-0.3,0.2-0.3,0.4c0,0.2,0.1,0.3,0.3,0.4c0.1,0.1,0.3,0.1,0.4,0.1c0.4,0.1,0.7,0.2,1.1,0.3c0.4,0.1,0.7,0.4,0.8,0.9
			c0,0.5-0.2,0.9-0.6,1.1C132.4,69.4,132.1,69.5,131.6,69.4z"/>
		<path class="st0" d="M97.5,65.4c0.1-0.2,0.3-0.1,0.5-0.1c0.2,0,0.3,0.1,0.3,0.2c0.3,0.8,0.6,1.7,0.9,2.5c0,0.1,0.1,0.2,0.2,0.4
			c0.3-0.8,0.6-1.6,0.9-2.4c0.1-0.2,0.2-0.4,0.2-0.6c0-0.1,0.1-0.2,0.3-0.2c0.2,0,0.3,0,0.4,0c0,0.2-0.1,0.3-0.1,0.5
			c-0.5,1.2-0.9,2.5-1.4,3.7c-0.1,0.3-0.3,0.7-0.5,1c-0.3,0.4-0.7,0.6-1.1,0.5c-0.2,0-0.2-0.1-0.2-0.3c0-0.1,0-0.2,0-0.4
			c0.2,0,0.3,0,0.5,0c0.2,0,0.4-0.1,0.5-0.4c0.2-0.3,0.2-0.7,0.1-1c-0.4-1-0.8-2.1-1.2-3.1C97.7,65.7,97.7,65.5,97.5,65.4L97.5,65.4
			z"/>
		<path class="st0" d="M64.4,66.5c0-0.8,0-1.6,0-2.4c0-0.4,0-0.4,0.4-0.4c0,0,0.1,0,0.1,0c0.2,0,0.2,0.1,0.2,0.3c0,0.1,0,0.3,0,0.4
			c0,1.3,0,2.5,0,3.8c0,0.1,0,0.2,0,0.3c0,0.2,0,0.2,0.3,0.2c0.1,0,0.3,0,0.4,0c0.5,0,1.1,0,1.6,0c0.1,0,0.2,0,0.3,0
			c0.1,0,0.1,0.1,0.1,0.2c0,0.1,0,0.2,0,0.2c0,0.2,0,0.3-0.2,0.3c-1,0-2.1,0-3.1,0c-0.1,0-0.2-0.1-0.2-0.2
			C64.4,68.3,64.4,67.4,64.4,66.5L64.4,66.5z"/>
		<path class="st0" d="M121.7,67.3c0-0.4,0-0.7,0.2-1c0.4-1.2,1.9-1.4,2.7-0.8c0.2,0.1,0.3,0.3,0.4,0.5c0.2,0.5,0.2,0.6-0.3,0.6
			c-0.1,0-0.2,0-0.2-0.1c0-0.1-0.1-0.1-0.1-0.2c-0.2-0.4-0.5-0.6-0.9-0.5c-0.4,0-0.8,0.2-0.9,0.6c-0.3,0.6-0.3,1.3,0,1.9
			c0.2,0.4,0.5,0.6,1,0.6c0.4,0,0.7-0.2,0.9-0.6c0-0.1,0-0.1,0.1-0.2c0-0.1,0.1-0.2,0.2-0.1c0.1,0,0.2,0,0.3,0.1
			c0.1,0,0.1,0.1,0.1,0.2c-0.2,0.7-0.8,1.3-1.5,1.3c-1.1,0.1-1.9-0.6-2-1.7C121.7,67.6,121.7,67.5,121.7,67.3z"/>
		<path class="st0" d="M116.6,65.4c0.2,0.4,0.3,0.9,0.5,1.3c0.2,0.5,0.3,1,0.5,1.5c0,0,0.1,0.1,0.1,0.1c0.1,0,0.1-0.1,0.1-0.1
			c0.3-0.8,0.6-1.6,0.9-2.4c0.2-0.6,0.1-0.5,0.7-0.5c0,0,0.1,0,0.1,0c0,0.1,0,0.1-0.1,0.2c-0.4,1.2-0.9,2.3-1.3,3.5
			c0,0.1-0.1,0.2-0.2,0.3c-0.2,0.1-0.4,0.1-0.6,0c0,0-0.1-0.1-0.1-0.1c-0.1-0.2-0.2-0.4-0.2-0.6c-0.4-0.9-0.7-1.9-1.1-2.8
			c0-0.1-0.1-0.2-0.1-0.3C116.1,65.2,116.4,65.4,116.6,65.4z"/>
		<path class="st0" d="M89.6,63.9c0,0.4,0,0.8,0,1.1c0,0.1,0.1,0.2,0.2,0.2c0.1,0,0.2,0,0.2,0c0.3,0,0.3,0.1,0.3,0.4
			c0,0.1-0.1,0.2-0.2,0.2c-0.1,0-0.2,0-0.2,0c-0.1,0-0.1,0-0.2,0c-0.1,0.1-0.1,0.2-0.1,0.3c0,0.6,0,1.2,0,1.9c0,0.1,0,0.3,0,0.4
			c0,0.2,0.1,0.3,0.3,0.3c0.1,0,0.1,0,0.2,0c0.2,0,0.2,0.1,0.2,0.2c0,0.1,0,0.2,0,0.2c0,0.1,0,0.2-0.1,0.2c-0.3,0-0.5,0.1-0.8,0
			c-0.3-0.1-0.5-0.3-0.5-0.6c0-0.4,0-0.7,0-1.1c0-0.5,0-1,0-1.6c0-0.2,0-0.2-0.2-0.3c-0.3-0.1-0.3-0.1-0.3-0.3c0-0.2,0-0.2,0.2-0.2
			c0,0,0.1,0,0.1,0c0.1,0,0.2-0.1,0.2-0.2c0-0.2,0-0.4,0-0.6c0-0.2,0-0.3,0.2-0.4C89.3,64.1,89.4,63.9,89.6,63.9z"/>
		<path class="st0" d="M82.5,65.7c0.1,0,0.1-0.1,0.2-0.1c0.4-0.4,0.7-0.4,1.2-0.2c0.1,0.1,0.1,0.1,0.1,0.2c0,0.1-0.1,0.1-0.1,0.2
			c0,0.2-0.1,0.2-0.3,0.2c-0.7-0.1-0.9,0.1-1.1,0.8c0,0.2,0,0.5-0.1,0.7c0,0.6,0,1.1,0,1.7c0,0.2,0,0.2-0.2,0.2c0,0-0.1,0-0.1,0
			c-0.4,0-0.4,0-0.4-0.4c0-1.1,0-2.2,0-3.4c0-0.3,0-0.3,0.4-0.3c0.1,0,0.1,0,0.2,0c0.1,0,0.1,0.1,0.1,0.1
			C82.4,65.5,82.4,65.5,82.5,65.7C82.4,65.6,82.5,65.6,82.5,65.7z"/>
		<path class="st0" d="M116.6,65.4c-0.1,0-0.3,0-0.4,0c-0.1,0-0.2,0-0.2,0.1c-0.1,0-0.1,0.1-0.2,0.1c-0.1,0.1-0.1,0.3-0.2,0.4
			c-0.1,0-0.2-0.1-0.4-0.1c-0.4,0-0.6,0.1-0.7,0.5c-0.1,0.3-0.1,0.6-0.1,0.9c0,0.6,0,1.2,0,1.8c0,0.2,0,0.3-0.3,0.3
			c-0.1,0-0.2,0-0.3,0c-0.1,0-0.1-0.1-0.1-0.1c0,0,0,0,0-0.1c0-1.2,0-2.4,0-3.6c0-0.1,0-0.2,0.1-0.2c0.2,0,0.4-0.1,0.5,0
			c0.1,0.1,0.1,0.2,0.1,0.3c0.1,0.1,0.2-0.1,0.2-0.1c0.3-0.3,0.6-0.4,1-0.3c0.2,0.1,0.4,0.1,0.6,0C116.2,65.3,116.4,65.2,116.6,65.4
			z"/>
		<path class="st0" d="M37.8,65.3c0.2-0.1,0.4,0,0.6,0c0,0.1,0,0.2,0.1,0.4c0.1,0,0.2-0.1,0.3-0.2c0.3-0.3,0.8-0.4,1.2-0.1
			c0.1,0,0.1,0.1,0.1,0.2c0,0.1-0.1,0.2-0.1,0.3c0,0.1-0.1,0.2-0.2,0.2c-0.1,0-0.1,0-0.2,0c-0.5-0.1-0.8,0.1-0.9,0.6
			c-0.1,0.3-0.1,0.6-0.1,0.9c0,0.6,0,1.2,0,1.7c0,0.1,0,0.2-0.2,0.2c-0.1,0-0.3,0-0.4,0c-0.1,0-0.1-0.1-0.1-0.1c0-0.1,0-0.1,0-0.2
			c0-1.2,0-2.4,0-3.6C37.7,65.4,37.7,65.4,37.8,65.3z"/>
		<path class="st0" d="M152.7,28.2c0.6,0,1.1,0.5,1.1,1.1c0,0.6-0.5,1.1-1.1,1.1c-0.6,0-1.1-0.5-1.1-1.1
			C151.7,28.6,152.1,28.2,152.7,28.2z"/>
		<path class="st0" d="M97.5,65.4c0,0.1-0.1,0.2-0.1,0.3C97.3,66,97.3,66,97,66c-0.6-0.1-0.8,0.1-0.9,0.6C96,66.8,96,67.1,96,67.3
			c0,0.6,0,1.2,0,1.8c0,0.2,0,0.2-0.2,0.2c-0.1,0-0.2,0-0.3,0c-0.1,0-0.2-0.1-0.2-0.2c0-0.1,0-0.1,0-0.2c0-1.2,0-2.3,0-3.5
			c0-0.1,0-0.1,0-0.2c0.1-0.1,0.3-0.1,0.4-0.1c0.2,0,0.2,0.1,0.2,0.2c0,0.1,0,0.1,0.1,0.1c0.1,0,0.1-0.1,0.2-0.2
			c0.3-0.3,0.6-0.4,0.9-0.2C97.3,65.3,97.4,65.3,97.5,65.4L97.5,65.4z"/>
		<path class="st0" d="M85.2,76.6c0,0.6-0.4,1.1-1.1,1.1c-0.6,0-1.1-0.4-1.1-1.1s0.5-1.2,1.1-1.2C84.8,75.5,85.3,76.1,85.2,76.6z"/>
		<path class="st0" d="M154.6,35.7c0.5,0,1,0.4,1,1c0,0.6-0.5,1-1,1c-0.6,0-1-0.4-1-1C153.5,36.3,154,35.6,154.6,35.7z"/>
		<path class="st0" d="M41.1,67.3c0,0.6,0,1.2,0,1.8c0,0.2,0,0.3-0.3,0.3c-0.1,0-0.2,0-0.2,0c-0.1,0-0.2-0.1-0.2-0.2
			c0-1.2,0-2.4,0-3.6c0-0.2,0-0.2,0.2-0.2c0.1,0,0.2,0,0.3,0c0.1,0,0.2,0.1,0.2,0.2c0,0.1,0,0.2,0,0.3
			C41.1,66.3,41.1,66.8,41.1,67.3z"/>
		<path class="st0" d="M120.9,67.3c0,0.6,0,1.2,0,1.9c0,0.1-0.1,0.2-0.2,0.2c0,0-0.1,0-0.1,0c-0.4,0-0.4,0-0.4-0.4
			c0-1.1,0-2.2,0-3.3c0-0.1,0-0.2,0-0.2c0-0.2,0.1-0.2,0.2-0.2c0.2,0,0.4-0.1,0.4,0.1c0,0.1,0,0.2,0,0.3
			C120.9,66.2,120.9,66.8,120.9,67.3L120.9,67.3z"/>
		<path class="st0" d="M120.9,64.1c0,0.1,0,0.1,0,0.2c0,0.1-0.1,0.2-0.2,0.2c-0.1,0-0.3,0-0.4,0c-0.1,0-0.1-0.1-0.1-0.2
			c0-0.1,0-0.2,0-0.2c0-0.4,0-0.4,0.4-0.4C120.9,63.7,120.9,63.8,120.9,64.1z"/>
		<path class="st0" d="M41,64.1c0,0.1,0,0.2,0,0.2c0,0.1-0.1,0.1-0.2,0.1c-0.1,0-0.3,0-0.4,0c-0.1,0-0.1-0.1-0.1-0.2
			c0-0.1,0-0.2,0-0.2c0-0.4,0-0.4,0.4-0.4C41,63.7,41,63.8,41,64.1C41.1,64.1,41.1,64.1,41,64.1C41,64.1,41,64.1,41,64.1z"/>
		<path class="st0" d="M47,49.9c-0.7-0.9-1.6-1.5-2.6-1.9c-0.2-0.1-0.4-0.1-0.6-0.2c0.3-0.2,0.4-0.3,0.6-0.4
			c2.4-1.5,3.4-4.6,2.2-7.1c-0.9-1.9-2.5-3.1-4.6-3.4c-1.2-0.2-2.4-0.2-3.6-0.2c-3.1,0-6.2,0-9.3,0c-0.1,0-0.2,0-0.3,0
			c-0.4,0-0.4,0-0.4,0.4c0,0.1,0,0.2,0,0.3c0,7.4,0,14.9,0,22.3c0,0.2,0,0.3,0,0.5c0,0.2,0,0.3,0.3,0.3c0.2,0,0.3,0,0.5,0
			c2.6,0,5.1,0,7.7,0c1.2,0,2.5,0,3.7,0c0.8,0,1.7-0.1,2.5-0.2c1.9-0.4,3.3-1.4,4.3-3c0.5-0.9,0.9-1.9,1-2.9
			C48.2,52.7,47.9,51.2,47,49.9z M33,41.2c0-0.1,0-0.2,0-0.2c0-0.3,0-0.3,0.3-0.3c1.1,0,2.1,0,3.2,0c1,0,2,0,3.1,0.1
			c0.4,0,0.8,0.1,1.2,0.2c0.8,0.3,1.3,1,1.4,1.9c0,0.3,0,0.6,0,0.9c-0.1,0.9-0.5,1.5-1.2,1.9c-0.5,0.3-1,0.4-1.5,0.4
			c-0.2,0-0.4,0-0.6,0c-1.8,0-3.6,0-5.3,0.1c-0.1,0-0.2,0-0.3,0c-0.1,0-0.2-0.1-0.2-0.2c0-0.1,0-0.2,0-0.3C33,44.1,33,42.6,33,41.2z
			 M43.1,53.9c-0.2,1.2-1,2-2.2,2.3c-0.3,0.1-0.6,0.1-1,0.1c-1.1,0-2.1,0.1-2.8,0.1c-1.4,0-2.4,0-3.5,0c-0.2,0-0.3,0-0.5,0
			c-0.1,0-0.2-0.1-0.2-0.2c0-0.1,0-0.2,0-0.3c0-1.8,0-3.6,0-5.3c0-0.1,0-0.2,0-0.2c0-0.2,0.1-0.2,0.2-0.3c0.1,0,0.1,0,0.2,0
			c1.8,0,3.5,0,5.3,0c0.7,0,1.4,0.1,2.1,0.2c1.4,0.3,2.3,1.4,2.4,2.9C43.2,53.4,43.1,53.7,43.1,53.9z"/>
		<path class="st0" d="M36.4,65.3c-0.2,0-0.3,0.1-0.3,0.3c0,0-0.1,0.1-0.1,0c-0.1,0-0.2-0.1-0.2-0.2c-0.7-0.5-1.9-0.3-2.4,0.7
			c-0.3,0.7-0.4,1.5-0.1,2.2c0.4,1,1.5,1.4,2.4,0.8c0.1,0,0.1-0.1,0.2-0.1c0,0.2,0,0.4,0,0.6c-0.1,0.4-0.4,0.7-0.8,0.8
			c-0.2,0-0.3,0-0.5,0c-0.3,0-0.5-0.1-0.6-0.4c-0.1-0.2-0.2-0.2-0.3-0.3c-0.1,0-0.2-0.1-0.4,0c0.1,0.8,0.4,1.1,1.2,1.2
			c0.3,0,0.6,0,0.9,0c0.8-0.1,1.2-0.6,1.3-1.4c0-0.2,0-0.4,0-0.6c0-1.1,0-2.3,0-3.4C36.7,65.3,36.7,65.3,36.4,65.3z M35.9,68
			c-0.1,0.5-0.5,0.8-1,0.8c-0.5,0-0.9-0.2-1.1-0.7c-0.2-0.5-0.2-1,0-1.5c0.1-0.5,0.5-0.8,1-0.8c0.4,0,0.9,0.3,1.1,0.7
			C36,66.7,36,67,36,67.3C36.1,67.5,36,67.7,35.9,68z"/>
		<path class="st0" d="M32.8,69.2c-0.7-1.7-1.4-3.5-2.1-5.2c-0.1-0.2-0.2-0.2-0.3-0.2c-0.1,0-0.2,0-0.2,0c-0.4,0-0.4,0-0.5,0.3
			c-0.2,0.6-0.4,1.2-0.7,1.7c-0.4,1.2-0.9,2.3-1.4,3.5c0.2,0,0.4,0,0.6,0c0.2,0,0.2-0.1,0.3-0.2c0.1-0.4,0.3-0.8,0.4-1.3
			c0.1-0.2,0.2-0.2,0.3-0.2c0.6,0,1.2,0,1.8,0c0.2,0,0.3,0.1,0.4,0.3c0.1,0.3,0.2,0.5,0.3,0.8c0.3,0.7,0.3,0.7,1,0.6
			C32.8,69.3,32.8,69.2,32.8,69.2z M29.2,67c0.3-0.9,0.6-1.6,0.8-2.5c0,0,0.1,0,0.1,0.1c0.3,0.8,0.6,1.6,0.9,2.4
			C30.5,67,29.9,67,29.2,67z"/>
		<path class="st0" d="M61.1,63.9c0,0-0.1-0.1-0.1-0.1c-0.1,0-0.3,0-0.4,0c-0.1,0-0.2,0.1-0.2,0.2c0,0.5,0,0.9,0,1.4
			c0,0.1,0,0.2-0.1,0.3c0,0-0.1,0-0.1-0.1c-0.7-0.6-2.1-0.3-2.5,0.8c-0.2,0.5-0.2,0.9-0.2,1.4c0.1,0.4,0.2,0.8,0.4,1.1
			c0.5,0.7,1.5,0.8,2.1,0.4c0.1-0.1,0.2-0.2,0.2-0.2c0.1,0,0,0.2,0.1,0.2c0,0.1,0.1,0.1,0.1,0.1c0.2,0,0.3,0,0.5,0
			c0-0.1,0-0.1,0-0.2c0-1.7,0-3.4,0-5C61.1,64,61.1,63.9,61.1,63.9z M60.3,68.2c-0.2,0.4-0.5,0.7-0.9,0.7c-0.5,0-0.8-0.2-1-0.6
			c-0.3-0.6-0.3-1.2,0-1.9c0.2-0.4,0.5-0.6,0.9-0.6c0.4,0,0.7,0.2,0.9,0.5c0.1,0.2,0.2,0.4,0.2,0.6c0,0.2,0,0.3,0,0.4
			C60.4,67.6,60.4,67.9,60.3,68.2z"/>
		<path class="st0" d="M76.4,66.1c-0.4-0.9-1.6-1.2-2.3-0.7c-0.1,0-0.1,0.1-0.3,0.2c0-0.5,0-1,0-1.4c0-0.5-0.1-0.6-0.6-0.5
			c-0.1,0-0.1,0.1-0.1,0.1c0,0.1,0,0.2,0,0.2c0,1.7,0,3.3,0,5c0,0.1,0,0.2,0.1,0.3c0.1,0,0.1,0,0.2,0c0.1,0,0.2,0,0.3-0.1
			c0.1-0.1,0-0.2,0.1-0.3c0.1,0.1,0.1,0.1,0.2,0.2c0.4,0.3,0.9,0.3,1.4,0.2c0.5-0.2,0.8-0.5,1-1C76.7,67.6,76.7,66.9,76.4,66.1z
			 M75.8,67.8c0,0.1-0.1,0.3-0.1,0.4c-0.2,0.4-0.6,0.7-1,0.6c-0.4,0-0.8-0.4-0.9-0.8c-0.1-0.5-0.1-1,0-1.4c0.1-0.5,0.6-0.9,1-0.9
			c0.5,0,0.9,0.4,1,0.9c0,0.2,0,0.4,0.1,0.6C75.9,67.5,75.9,67.6,75.8,67.8z"/>
		<path class="st0" d="M72,68.1c0-0.5,0-1,0-1.5c0-0.2,0-0.3,0-0.5c-0.1-0.5-0.3-0.8-0.8-0.9c-0.5-0.1-0.9-0.1-1.4,0
			c-0.6,0.1-1,0.5-1.2,1.2c0.1,0,0.2,0,0.3,0.1c0.3,0.1,0.3,0.1,0.5-0.2c0.1-0.3,0.4-0.4,0.6-0.4c0.2,0,0.5,0,0.7,0
			c0.4,0.1,0.6,0.3,0.6,0.7c0,0.2,0,0.2-0.2,0.3C70.7,66.9,70.4,67,70,67c-0.3,0-0.7,0.1-0.9,0.3c-0.4,0.2-0.6,0.6-0.6,1.1
			c0,0.5,0.3,0.8,0.8,1c0.5,0.2,1.1,0.1,1.6-0.2c0.1-0.1,0.3-0.2,0.4-0.3c0.1,0.1,0.1,0.2,0.1,0.3c0,0.1,0.1,0.1,0.2,0.1
			c0.2,0,0.4,0.1,0.6-0.1C72,68.9,72,68.5,72,68.1z M71.3,67.7c-0.1,0.8-0.5,1.2-1.3,1.2c-0.1,0-0.3,0-0.4-0.1
			c-0.2-0.1-0.4-0.3-0.3-0.6c0-0.3,0.1-0.4,0.4-0.5c0.2-0.1,0.3-0.1,0.5-0.1c0.3-0.1,0.6-0.1,0.9-0.2C71.3,67.4,71.3,67.4,71.3,67.7
			z"/>
		<path class="st0" d="M87.7,68.1c0-0.6,0-1.2,0-1.8c0-0.6-0.3-0.9-0.9-1.1c-0.4-0.1-0.9-0.1-1.3,0c-0.6,0.1-1,0.5-1.2,1.2
			c0.2,0,0.3,0,0.4,0.1c0.2,0.1,0.3,0,0.4-0.2c0.1-0.3,0.4-0.4,0.7-0.5c0.3,0,0.5,0,0.7,0.1c0.4,0.1,0.5,0.4,0.5,0.8
			c0,0.1-0.1,0.1-0.2,0.1c-0.4,0.1-0.8,0.2-1.1,0.2c-0.3,0-0.7,0.1-0.9,0.3c-0.4,0.3-0.6,0.7-0.6,1.2c0.1,0.5,0.3,0.8,0.8,0.9
			c0.6,0.2,1.1,0.1,1.6-0.2c0.2-0.1,0.3-0.2,0.4-0.2c0.2,0.4,0.2,0.4,0.6,0.4c0.1,0,0.1,0,0.2,0C87.7,68.9,87.7,68.5,87.7,68.1z
			 M85.5,68.9c-0.3,0-0.5-0.3-0.6-0.6c0-0.3,0.2-0.5,0.5-0.6c0.1,0,0.2-0.1,0.3-0.1c0.4-0.1,0.9-0.1,1.3-0.2
			C87.2,68.3,86.5,69,85.5,68.9z"/>
		<path class="st0" d="M129.2,67.5c0.2,0,0.2-0.1,0.2-0.2c0-0.2,0-0.5-0.1-0.7c-0.2-0.8-0.8-1.4-1.7-1.4c-0.9,0-1.6,0.5-1.9,1.3
			c-0.2,0.5-0.2,1.1,0,1.7c0.2,0.6,0.6,1,1.2,1.2c0.5,0.1,0.9,0.1,1.4,0c0.5-0.2,0.8-0.5,1-1c0.1-0.1,0-0.2-0.1-0.2
			c-0.3-0.1-0.5-0.1-0.7,0.3c-0.2,0.4-0.6,0.5-1,0.5c-0.7-0.1-1.1-0.6-1-1.4c0.2,0,0.4,0,0.6,0C127.7,67.5,128.5,67.5,129.2,67.5z
			 M126.4,66.7c0.2-0.8,0.9-1.2,1.6-0.9c0.4,0.2,0.6,0.5,0.6,1c-0.7,0-1.3,0-2,0C126.4,66.9,126.4,66.8,126.4,66.7z"/>
		<path class="st0" d="M112.8,67.5c0.1-0.4,0-0.7-0.1-1c-0.2-0.8-0.9-1.3-1.7-1.3c-0.8,0-1.5,0.4-1.8,1.2c-0.2,0.6-0.2,1.2-0.1,1.8
			c0.2,0.7,0.6,1.1,1.3,1.3c0.4,0.1,0.7,0.1,1.1,0c0.6-0.1,1-0.5,1.2-1.1c0-0.1,0-0.2-0.1-0.2c-0.1,0-0.2,0-0.2,0
			c-0.2,0-0.3,0-0.5,0.2c-0.2,0.4-0.5,0.6-0.9,0.6c-0.3,0-0.6-0.1-0.9-0.4c-0.2-0.3-0.4-0.6-0.3-1C110.8,67.5,111.8,67.5,112.8,67.5
			z M111.2,65.8c0.5,0.1,0.8,0.4,0.8,1.1c-0.1,0-0.1,0-0.2,0c-0.6,0-1.3,0-1.9,0c-0.1,0-0.2,0-0.2-0.1
			C109.9,66.1,110.6,65.6,111.2,65.8z"/>
		<path class="st0" d="M56.9,66.8c-0.1-0.8-0.6-1.4-1.5-1.6c-1.1-0.2-2.1,0.4-2.3,1.5c-0.1,0.4-0.1,0.7,0,1.1c0.1,1,0.9,1.7,2.2,1.6
			c0.9-0.1,1.5-0.7,1.6-1.6c0-0.2,0-0.3,0-0.5C57,67.2,57,67,56.9,66.8z M56.1,68.1c-0.2,0.4-0.5,0.7-1,0.7c-0.5,0-0.9-0.2-1.1-0.7
			c-0.2-0.6-0.2-1.1,0-1.7c0.2-0.5,0.6-0.7,1-0.7c0.5,0,0.8,0.3,1,0.7c0.1,0.3,0.2,0.6,0.1,0.8C56.3,67.6,56.2,67.9,56.1,68.1z"/>
		<path class="st0" d="M94.5,66.8c-0.1-0.8-0.6-1.4-1.4-1.6c-1.1-0.2-2.1,0.4-2.3,1.5c-0.1,0.4-0.1,0.7,0,1.1c0.1,1,0.9,1.7,2.2,1.6
			c0.9-0.1,1.5-0.7,1.6-1.6c0-0.2,0-0.3,0-0.5C94.5,67.2,94.5,67,94.5,66.8z M93.7,68.1c-0.2,0.4-0.5,0.7-1,0.7
			c-0.5,0-0.9-0.2-1.1-0.7c-0.2-0.6-0.2-1.1,0-1.7c0.2-0.5,0.6-0.7,1-0.7c0.5,0,0.8,0.3,1,0.7c0.1,0.3,0.2,0.6,0.1,0.8
			C93.8,67.6,93.8,67.9,93.7,68.1z"/>
		<path class="st0" d="M81,66.7c-0.2-0.9-0.8-1.5-1.6-1.6c-1-0.1-2,0.4-2.1,1.7c0,0.2,0,0.3,0,0.4c0,0.1,0,0.3,0,0.4
			c0.1,1,0.8,1.8,2.1,1.8c0.8-0.1,1.5-0.6,1.6-1.4C81,67.6,81,67.2,81,66.7z M80.1,68.1c-0.2,0.5-0.6,0.7-1.1,0.7
			c-0.5,0-0.8-0.3-1-0.7c-0.2-0.5-0.2-1.1,0-1.6c0.2-0.5,0.5-0.7,1-0.7c0.5,0,0.8,0.2,1.1,0.7c0.1,0.3,0.1,0.6,0.2,0.9
			C80.3,67.6,80.3,67.9,80.1,68.1z"/>
		<path class="st0" d="M52.6,66.6c-0.2-0.8-0.7-1.3-1.5-1.4C50,65,49,65.7,48.8,66.8c0,0.2,0,0.3,0,0.5c0,0,0,0,0,0
			c0,0.1,0,0.2,0,0.3c0.1,1.2,0.9,1.9,2.1,1.8c0.8-0.1,1.4-0.5,1.6-1.2C52.7,67.7,52.7,67.2,52.6,66.6z M51.8,68
			c-0.2,0.5-0.6,0.8-1.1,0.8c-0.5,0-0.9-0.3-1.1-0.8c-0.1-0.2-0.1-0.5-0.1-0.7c0-0.3,0-0.5,0.1-0.8c0.2-0.5,0.6-0.8,1.1-0.8
			c0.5,0,0.9,0.3,1.1,0.8C52,67.1,52,67.6,51.8,68z"/>
	</g>
</g>
</svg>
