<?xml version="1.0" encoding="utf-8"?>
<!-- Generator: Adobe Illustrator 27.3.0, SVG Export Plug-In . SVG Version: 6.00 Build 0)  -->
<svg version="1.1" id="Livello_1" xmlns="http://www.w3.org/2000/svg" xmlns:xlink="http://www.w3.org/1999/xlink" x="0px" y="0px"
	 viewBox="0 0 500 141.5" style="enable-background:new 0 0 500 141.5;" xml:space="preserve">
<style type="text/css">
	.st0{fill:#79211C;}
	.st1{fill:#2E7636;}
	.st2{fill:#3F3731;}
</style>
<g>
	<polygon class="st0" points="5.5,53.9 5.5,53.9 5.3,41.2 5.1,28.4 4.6,15.6 4,2.9 4,2.9 8.7,3.5 13.3,3.7 13.3,3.7 18,3.5 
		22.8,2.9 22.8,2.9 22.2,15.6 21.6,28.4 21.3,41.2 21.3,53.9 21.3,87.7 21.3,87.7 21.3,100.5 21.6,113.2 22.2,126 22.8,138.8 
		22.8,138.8 18,138.1 13.3,137.9 13.3,137.9 8.7,138.1 4,138.8 4,138.8 4.6,126 5.1,113.2 5.3,100.5 5.5,87.7 5.5,53.9 	"/>
	<polygon class="st0" points="59,53.9 59,53.9 58.8,41.2 58.6,28.4 58.1,15.6 57.5,2.9 57.5,2.9 62.4,3.5 67,3.7 67,3.7 71.5,3.5 
		76.3,2.9 76.3,2.9 75.7,15.6 75.1,28.4 74.8,41.2 74.8,53.9 74.8,53.9 74.8,96.8 75.3,129.5 75.3,129.5 87.9,129.5 100.6,129 
		113.7,128.2 126.9,126.9 126.9,126.9 126.2,129.9 126,132.9 126,132.9 126.2,135.7 126.9,138.8 126.9,138.8 109.5,138.1 
		92.2,137.9 92.2,137.9 74.8,138.1 57.5,138.8 57.5,138.8 58.1,126 58.6,113.2 58.8,100.5 59,87.7 59,53.9 	"/>
	<path class="st0" d="M155.2,53.9L155.2,53.9L155,41.2l-0.2-12.8l-0.4-12.8l-0.6-12.8l0,0l10.8,0.6l10.6,0.2l0,0h5.5l5.1-0.4l0,0
		l5.5-0.4h5.3l0,0h4l3.8,0.2l3.8,0.6l3.4,0.6l3.4,0.9l3.2,1.3l3.2,1.3l2.7,1.5l0,0l2.5,1.9l2.3,2.4l2.1,2.6l1.5,2.8l1.3,3.2l0.8,3.5
		l0.6,3.9l0.2,4.3l0,0l-0.2,4.5l-0.8,4.1l-0.6,1.9l-0.6,1.9l-0.6,1.9l-0.8,1.7l0,0l-2.1,3l-2.3,3l-2.5,2.6l-2.7,2.4l0,0l-3,2.2
		l-3.2,1.9l-3.2,1.5l-3.2,1.3l0,0l-3.2,1.3l-3.2,0.9l-3,0.6l-2.7,0.6l0,0l12.3,16.4l12.5,16.7l12.9,16.9l13.3,17.1l0,0l-5.7-0.6
		l-5.5-0.4l0,0l-5.3,0.4l-5.5,0.6l0,0l-3.6-5.8l-4.9-7.1L205.3,108l0,0l-7-9.7l-7-9.1l-6.8-8.2l-6.6-7.4h-7v14.3l0,0v12.8l0.4,12.6
		l0.4,12.8l0.6,12.8l0,0l-4.7-0.6l-4.7-0.4l0,0l-4.7,0.4l-4.9,0.6l0,0l0.6-12.8l0.4-12.8l0.2-12.6l0.2-12.8V53.9L155.2,53.9z
		 M171.1,65.2L171.1,65.2l2.7,0.4l3,0.4l3.2,0.2h3.6l0,0h3l3-0.4l3.2-0.4l3-0.9l0,0l3.2-0.6l2.7-1.1l3-1.5l2.7-1.5l0,0l2.5-1.9
		l2.3-2.2l2.1-2.6l1.7-2.6l0,0l1.5-3.2l0.8-3.5l0.6-3.7l0.2-4.1l0,0l-0.2-3.9l-0.4-3.5l-0.8-3l-1.1-2.6l0,0l-1.5-2.4l-1.5-1.9
		l-1.9-1.9l-2.1-1.5l0,0l-2.1-1.5l-2.3-1.1l-2.3-0.9l-2.5-0.6l0,0l-5.1-0.6l-4.9-0.2l0,0l-10.8,0.2l-4.2,0.4l-3.2,0.2l0,0l-0.4,10.8
		l-0.4,10.6l-0.2,10.8v10.6V65.2L171.1,65.2z"/>
	<polygon class="st0" points="273,53.9 273,53.9 272.8,41.2 272.3,28.4 271.9,15.6 271.5,2.9 271.5,2.9 276.1,3.5 280.8,3.7 
		280.8,3.7 285.4,3.5 290.3,2.9 290.3,2.9 289.5,15.6 289,28.4 288.8,41.2 288.6,53.9 288.6,87.7 288.6,87.7 288.8,100.5 289,113.2 
		289.5,126 290.3,138.8 290.3,138.8 285.4,138.1 280.8,137.9 280.8,137.9 276.1,138.1 271.5,138.8 271.5,138.8 271.9,126 
		272.3,113.2 272.8,100.5 273,87.7 273,53.9 	"/>
	<path class="st1" d="M433.3,48c-1.3-1.6-4.4-4.3-6.1-5.9c-2.5-2.4-3.2-3.2-3.2-7.3V17c0-2.5-4-2.2-4,0.1c0,0-0.3,30.9,0,33.5
		c0.3,2.6-1.1,4.7,3.3,7.3c4.8,2.9,11.7,4.9,11.7,4.9s0.1-6.8,0.2-9.3C435.2,51,434.6,49.6,433.3,48 M431.2,57.7
		C431.2,57.7,431.2,57.7,431.2,57.7c-6.7-2.6-7.9-2.1-7.1-12C432.1,50.4,431.6,52.1,431.2,57.7"/>
	<path class="st1" d="M439.1,53.5c0.1,2.5,0.2,9.3,0.2,9.3s6.9-1.9,11.7-4.9c4.3-2.7,3-4.7,3.3-7.3c0.3-2.6,0-33.5,0-33.5
		c0-2.3-4-2.6-4-0.1v17.8c0,4.2-0.7,4.9-3.2,7.3c-1.6,1.6-4.8,4.3-6.1,5.9C439.7,49.6,439,51,439.1,53.5 M450.1,45.7
		c0.8,9.9-0.3,9.4-7.1,12c0,0,0,0,0,0C442.7,52.1,442.1,50.4,450.1,45.7"/>
	<path class="st1" d="M442.4,30c-2.3-4.1,0,0-3.2-5.3V5.1c0-3.1-4-2.8-4,0l0,19.6c0,0-3.4,5.6-4.4,7.8c-1,2.2-2.2,4.9,1,8.4
		c0.2,0.3,0.7,1,5.4,5.3l0.1-0.1c0,0,0,0,4.1-4C446.6,37.1,444.8,34,442.4,30 M437.2,41.4c-7.7-4-2.2-9.5,0-13.1l0.2,0.3
		C443.1,36.9,441.6,38.1,437.2,41.4"/>
	<path class="st1" d="M434.8,72c-0.2-3.8-1.6-7.2-9.7-10.2c-6.8-2.5-16.5-3-23.5-4.1c-7-1.1-18.7-3-24.5-8.3
		c4.4,14.1,15.3,19.9,26.4,22.2c12.6,2.6,23.8,3.7,30.7,8.3l0.7,0.5C434.5,77.1,435,75.8,434.8,72 M431.3,73.8
		c-6-2.2-10-2.8-20.8-4.9c-10.8-2.1-17.3-4-23.1-10c9.4,3.5,24.5,4.8,32.7,6.4C428.2,67,430.5,69.1,431.3,73.8L431.3,73.8z"/>
	<path class="st1" d="M439.2,80.4l0.7-0.5c6.9-4.6,18.1-5.7,30.7-8.3c11.1-2.3,22-8.2,26.4-22.2c-5.8,5.4-17.5,7.2-24.5,8.3
		c-7,1.1-16.7,1.6-23.5,4.1c-8.1,2.9-9.5,6.3-9.7,10.2C439.1,75.8,439.6,77.1,439.2,80.4 M442.8,73.8c0.9-4.7,3.1-6.8,11.3-8.5
		c8.2-1.7,23.3-3,32.7-6.4c-5.8,6-12.3,7.9-23.1,10C452.8,71,448.8,71.6,442.8,73.8L442.8,73.8z"/>
	<path class="st1" d="M434.4,89.8c0.1-7.6-4.4-9.7-11-11.4c-6.7-1.7-15.9-3-23.8-5.2c-7.9-2.2-12.3-3.7-17.6-9.3
		c1.1,11,9,18.7,18.8,22c9.7,3.3,9.2,2.6,14.5,3.9c5.3,1.3,6.2,3.1,6.2,6.3v6.5h13.1C434.7,88,434.3,97.4,434.4,89.8 M430.6,98.6
		h-5.3c0,0,0.1-2.1-0.2-5.8c-0.4-4.8-6.2-5.3-15.8-7.9c-6.6-1.8-15.2-4.1-19-10.4c2.3,1,7,2.9,14.7,4.4c7.3,1.4,11.4,2.3,18.1,3.6
		c6.4,1.3,7.6,5.1,7.6,9.2V98.6z"/>
	<path class="st1" d="M439.5,102.7h13.1v-6.5c0-3.1,1-5,6.2-6.3c5.3-1.3,4.7-0.6,14.5-3.9c9.7-3.3,17.6-11,18.8-22
		c-5.3,5.6-9.7,7.1-17.6,9.3c-7.9,2.2-17.2,3.5-23.8,5.2c-6.7,1.7-11.1,3.8-11,11.4C439.6,97.4,439.2,88.1,439.5,102.7 M443.3,91.8
		c0-4.2,1.2-7.9,7.6-9.2c6.7-1.4,10.8-2.2,18.1-3.6c7.6-1.5,12.3-3.4,14.7-4.4c-3.8,6.4-12.4,8.7-19,10.4c-9.6,2.6-15.4,3-15.8,7.9
		c-0.3,3.7-0.2,5.8-0.2,5.8h-5.3V91.8z"/>
	<path class="st1" d="M408,138.1c-1.7,0.4-3.5,0.7-5.2,0.7c-7.4,0-12.6-3.6-12.6-11.1c0-7.6,4.8-11.9,12.6-11.9
		c1.5,0,3.5,0.3,5.2,0.9l-0.3,3.8c-1.7-1-3.3-1.2-5-1.2c-4.7,0-7.7,3.5-7.7,8.1c0,4.5,2.9,7.9,7.8,7.9c1.8,0,3.9-0.4,5-0.9
		L408,138.1"/>
	<path class="st1" d="M429.3,120.5c-1.8-0.8-4.1-1.2-5.9-1.2c-5.3,0-8.3,3.5-8.3,8.1c0,4.5,2.9,7.9,7.8,7.9c1.2,0,2.2-0.1,3-0.3
		v-5.8H421v-3.5h9.3v12c-2.4,0.6-5,1.1-7.4,1.1c-7.4,0-12.6-3.6-12.6-11.1c0-7.6,4.8-11.9,12.6-11.9c2.7,0,4.8,0.3,6.7,0.9
		L429.3,120.5"/>
	<rect x="434.7" y="116.2" class="st1" width="4.6" height="22.2"/>
	<path class="st1" d="M456.7,129.8H450l3.3-9.2h0.1L456.7,129.8 M441.9,138.4h4.8l2-5.1h9.3l2,5.1h5.1l-9-22.2h-5.2L441.9,138.4z"/>
	<path class="st1" d="M472.2,119.7h1.5c2.3,0,4.9,0.2,4.9,2.9c0,2.8-2.6,3.1-4.9,3.1h-1.5V119.7 M467.6,138.4h4.6v-9.2h1.5
		c1.9,0,2.5,0.6,3.2,2.3l2.8,6.9h5.1l-3.7-8.7c-0.5-1-1.2-2.2-2.4-2.3v-0.1c2.9-0.4,4.7-2.6,4.7-5.2c0-6.2-5.9-6-10.8-6h-5V138.4z"
		/>
	<rect x="345" y="2.5" class="st2" width="2" height="136"/>
</g>
</svg>
